# xmcd
#
# Track frame offsets:
#	150
#	16225
#	29935
#	47287
#	61327
#	77040
#	91755
#	107740
#	124817
#	140642
#	159332
#	181210
#	193575
#	210592
#	225575
#	240190
#
# Disc length: 3414 seconds
#
# Revision: 1
# Processed by: cddbd v1.5.1PL0 Copyright (c) Steve Scherf et al.
# Submitted via: audiograbber 1.80
#
DISCID=c70d5410
DTITLE=Anne Veski and Marju Länik - Kutse tantsule nr.9
DYEAR=1900
DGENRE=
TTITLE0=Anne  Veski - Kes teab
TTITLE1=Marju Länik - Vasta, kui küsin
TTITLE2=Anne  Veski - Sel maal
TTITLE3=Marju Länik - Roosiaed
TTITLE4=Anne  Veski - Troopikaöö
TTITLE5=Marju Länik - Suudle
TTITLE6=Anne  Veski - Krokodillipisarad
TTITLE7=Marju Länik - Suvekuninganna
TTITLE8=Marju Länik - Vajan su kätt
TTITLE9=Anne  Veski - Laine tiivul
TTITLE10=Marju Länik - Karikakar
TTITLE11=Anne  Veski - Suveaeg, suveöö
TTITLE12=Marju Länik - Varjude mäng
TTITLE13=Anne  Veski - Tähelend
TTITLE14=Marju Länik - Taas löövad kellad
TTITLE15=Anne  Veski - Viimne pilet
EXTD=
EXTT0=
EXTT1=
EXTT2=
EXTT3=
EXTT4=
EXTT5=
EXTT6=
EXTT7=
EXTT8=
EXTT9=
EXTT10=
EXTT11=
EXTT12=
EXTT13=
EXTT14=
EXTT15=
PLAYORDER=
